HIERARCHY
ROOT Hips
{
	OFFSET 0.000000 0.000000 0.000000
	CHANNELS 6 Xposition Yposition Zposition Xrotation Yrotation Zrotation
	JOINT LeftUpLeg_virtual
	{
		OFFSET 0.000000 0.000000 0.000000
		CHANNELS 3 Xrotation Yrotation Zrotation
		JOINT LeftUpLeg
		{
			OFFSET 13.026900 -6.336304 -1.092800
			CHANNELS 3 Xrotation Yrotation Zrotation
			JOINT LeftLeg
			{
				OFFSET 0.524474 -46.096886 9.782700
				CHANNELS 3 Xrotation Yrotation Zrotation
				JOINT LeftFoot
				{
					OFFSET -0.524474 -53.427422 -12.948200
					CHANNELS 3 Xrotation Yrotation Zrotation
					JOINT LeftToeBase
					{
						OFFSET 0.192200 -14.009700 16.364100
						CHANNELS 3 Xrotation Yrotation Zrotation
						JOINT LeftToe_End
						{
							OFFSET -1.784700 -0.561700 9.474800
							CHANNELS 3 Xrotation Yrotation Zrotation
							End Site
							{
								OFFSET 0 0 0
							}
						}
					}
				}
			}
		}
	}
	JOINT RightUpLeg_virtual
	{
		OFFSET 0.000000 0.000000 0.000000
		CHANNELS 3 Xrotation Yrotation Zrotation
		JOINT RightUpLeg
		{
			OFFSET -12.883000 -6.336304 -1.092800
			CHANNELS 3 Xrotation Yrotation Zrotation
			JOINT RightLeg
			{
				OFFSET -0.524587 -46.096825 9.782800
				CHANNELS 3 Xrotation Yrotation Zrotation
				JOINT RightFoot
				{
					OFFSET 0.524587 -53.427383 -12.948300
					CHANNELS 3 Xrotation Yrotation Zrotation
					JOINT RightToeBase
					{
						OFFSET -0.192200 -14.009700 16.364100
						CHANNELS 3 Xrotation Yrotation Zrotation
						JOINT RightToe_End
						{
							OFFSET 1.784700 -0.561700 9.474800
							CHANNELS 3 Xrotation Yrotation Zrotation
							End Site
							{
								OFFSET 0 0 0
							}
						}
					}
				}
			}
		}
	}
	JOINT Spine_virtual
	{
		OFFSET 0.000000 0.000000 0.000000
		CHANNELS 3 Xrotation Yrotation Zrotation
		JOINT Spine
		{
			OFFSET 0.072000 7.257294 -0.789700
			CHANNELS 3 Xrotation Yrotation Zrotation
			JOINT Spine1
			{
				OFFSET 0.000000 12.508769 -0.658067
				CHANNELS 3 Xrotation Yrotation Zrotation
				JOINT Spine1_split
				{
					OFFSET 0.000000 12.508769 -0.658067
					CHANNELS 3 Xrotation Yrotation Zrotation
					JOINT Spine2
					{
						OFFSET 0.000000 12.508769 -0.658067
						CHANNELS 3 Xrotation Yrotation Zrotation
						JOINT Neck_virtual
						{
							OFFSET 0.000000 0.000000 0.000000
							CHANNELS 3 Xrotation Yrotation Zrotation
							JOINT Neck
							{
								OFFSET 0.000000 14.033295 7.520400
								CHANNELS 3 Xrotation Yrotation Zrotation
								JOINT Head
								{
									OFFSET 0.000000 8.198502 5.703100
									CHANNELS 3 Xrotation Yrotation Zrotation
									JOINT HeadTop_End
									{
										OFFSET 0.000000 17.760803 13.332701
										CHANNELS 3 Xrotation Yrotation Zrotation
										End Site
										{
											OFFSET 0 0 0
										}
									}
								}
							}
						}
						JOINT LeftShoulder_virtual
						{
							OFFSET 0.000000 0.000000 0.000000
							CHANNELS 3 Xrotation Yrotation Zrotation
							JOINT LeftShoulder
							{
								OFFSET 6.292450 5.785301 -0.669000
								CHANNELS 3 Xrotation Yrotation Zrotation
								JOINT LeftShoulder_split
								{
									OFFSET 6.292450 5.785301 -0.669000
									CHANNELS 3 Xrotation Yrotation Zrotation
									JOINT LeftArm
									{
										OFFSET 13.907140 -6.093903 1.965100
										CHANNELS 3 Xrotation Yrotation Zrotation
										JOINT LeftForeArm
										{
											OFFSET 34.140198 0.000000 0.000000
											CHANNELS 3 Xrotation Yrotation Zrotation
											JOINT LeftHand
											{
												OFFSET 40.960209 0.000000 0.000000
												CHANNELS 3 Xrotation Yrotation Zrotation
												End Site
												{
													OFFSET 0 0 0
												}
											}
										}
									}
								}
							}
						}
						JOINT RightShoulder_virtual
						{
							OFFSET 0.000000 0.000000 0.000000
							CHANNELS 3 Xrotation Yrotation Zrotation
							JOINT RightShoulder
							{
								OFFSET -6.292450 5.785301 -0.669000
								CHANNELS 3 Xrotation Yrotation Zrotation
								JOINT RightShoulder_split
								{
									OFFSET -6.292450 5.785301 -0.669000
									CHANNELS 3 Xrotation Yrotation Zrotation
									JOINT RightArm
									{
										OFFSET -13.907140 -6.093903 1.965100
										CHANNELS 3 Xrotation Yrotation Zrotation
										JOINT RightForeArm
										{
											OFFSET -34.140198 0.000000 0.000000
											CHANNELS 3 Xrotation Yrotation Zrotation
											JOINT RightHand
											{
												OFFSET -40.960209 0.000000 0.000000
												CHANNELS 3 Xrotation Yrotation Zrotation
												End Site
												{
													OFFSET 0 0 0
												}
											}
										}
									}
								}
							}
						}
					}
				}
			}
		}
	}
}
MOTION
Frames: 11
Frame Time: 0.03333333
0.109594 134.250732 -0.335571 0.000000 0.000000 0.000000 -89.651021 0.355924 0.722099 -5.165723 17.352874 19.147940 4.132238 7.439908 0.328612 29.612398 29.484871 -30.980287 -4.397749 0.000005 0.000000 0.000000 0.000000 0.000000 -89.651021 0.355924 0.722099 -4.355318 -17.131496 -12.371333 3.268663 -7.171910 -7.616779 38.787965 -29.663310 30.903823 -9.125963 -0.000004 -0.000022 0.000000 0.000000 0.000000 -89.651021 0.355924 0.722099 1.065822 -1.178677 0.944771 -0.317535 -2.434543 0.230484 0.000000 0.000000 0.000000 0.000000 0.000000 0.000000 -0.303412 -2.418348 0.331944 -10.007536 0.102138 -1.808070 8.692137 -2.170252 1.510696 0.000000 0.000000 0.000000 -0.303412 -2.418348 0.331944 0.422246 -0.103000 -4.005444 0.000000 0.000000 0.000000 35.263652 -28.378538 -54.538405 0.000208 -80.454178 0.000238 0.000000 0.000000 0.000000 -0.303412 -2.418348 0.331944 0.646680 1.792566 13.881980 0.000000 0.000000 0.000000 39.542957 30.913347 33.651659 -179.999882 78.652155 179.999909 0.000000 0.000000 0.000000 
0.148643 134.240631 -0.277870 0.000000 0.000000 0.000000 -89.707957 0.550607 0.957031 -5.141237 16.980421 18.823247 4.417112 7.210545 0.437002 29.611404 29.477088 -30.830651 -5.419513 -0.000012 0.000003 0.000000 0.000000 0.000000 -89.707957 0.550607 0.957031 -4.375329 -17.415046 -12.876001 3.424197 -6.571566 -7.095981 39.873726 -29.728439 30.912367 -8.902580 0.000020 -0.000006 0.000000 0.000000 0.000000 -89.707957 0.550607 0.957031 1.023356 -1.101778 0.972285 -0.521691 -2.314062 0.161337 0.000000 0.000000 0.000000 0.000000 0.000000 0.000000 -0.492039 -2.319871 0.287192 -9.946355 0.033122 -1.614218 8.870998 -2.467349 1.625963 0.000000 0.000000 0.000000 -0.492039 -2.319871 0.287192 0.507660 -1.375825 -4.005945 0.000000 0.000000 0.000000 35.944495 -28.114961 -54.137083 -0.000120 -80.729257 -0.000127 0.000000 0.000000 0.000000 -0.492039 -2.319871 0.287192 0.569193 1.762515 13.812978 0.000000 0.000000 0.000000 35.720704 29.082105 39.718578 -179.999459 79.219881 179.999445 0.000000 0.000000 0.000000 
0.293442 134.228790 -0.259285 0.000000 0.000000 0.000000 -89.780323 0.754959 1.149605 -5.102184 16.588887 18.484952 4.765152 6.982775 0.555145 29.653905 29.443054 -30.541898 -6.412980 0.000001 -0.000020 0.000000 0.000000 0.000000 -89.780323 0.754959 1.149605 -4.445821 -17.685008 -13.419657 3.390953 -6.136899 -6.602421 41.646208 -29.802120 31.020540 -8.688609 0.000003 -0.000002 0.000000 0.000000 0.000000 -89.780323 0.754959 1.149605 0.981411 -1.027784 1.029363 -0.725592 -2.193579 0.092202 0.000000 0.000000 0.000000 0.000000 0.000000 0.000000 -0.680583 -2.221396 0.242446 -9.759814 -0.038812 -1.424881 9.367737 -2.767413 1.745068 0.000000 0.000000 0.000000 -0.680583 -2.221396 0.242446 0.624296 -2.705505 -3.943881 0.000000 0.000000 0.000000 36.534661 -27.843707 -53.883014 0.000464 -80.975875 0.000439 0.000000 0.000000 0.000000 -0.680583 -2.221396 0.242446 0.504912 1.691345 13.749587 0.000000 0.000000 0.000000 30.303411 27.254039 45.899343 179.999445 81.105191 -179.999431 0.000000 0.000000 0.000000 
0.459413 134.228958 -0.212280 0.000000 0.000000 0.000000 -89.780002 0.926585 1.359832 -5.167334 16.233087 18.130382 5.181253 6.749638 0.661029 29.667354 29.418759 -30.260296 -7.209253 -0.000026 0.000004 0.000000 0.000000 0.000000 -89.780002 0.926585 1.359832 -4.660688 -17.930083 -13.971083 3.533557 -5.707990 -6.177536 42.145242 -29.861000 31.064756 -8.477376 0.000003 0.000006 0.000000 0.000000 0.000000 -89.780002 0.926585 1.359832 0.936023 -0.947412 1.055072 -0.917815 -2.053076 0.021351 0.000000 0.000000 0.000000 0.000000 0.000000 0.000000 -0.862911 -2.122840 0.197564 -9.446787 -0.103802 -1.268105 10.147288 -3.061073 1.855787 0.000000 0.000000 0.000000 -0.862911 -2.122840 0.197564 0.742972 -4.009704 -3.933649 0.000000 0.000000 0.000000 37.120186 -27.535293 -53.596337 -0.000264 -81.245114 -0.000284 0.000000 0.000000 0.000000 -0.862911 -2.122840 0.197564 0.491468 1.455984 13.715577 0.000000 0.000000 0.000000 24.469477 26.105044 50.660613 -179.998516 84.099505 179.998530 0.000000 0.000000 0.000000 
0.631253 134.268814 -0.147858 0.000000 0.000000 0.000000 -89.554797 1.007134 1.538472 -5.501897 15.951429 17.832659 5.699210 6.564088 0.769151 29.703830 29.391632 -29.994656 -7.998351 -0.000014 -0.000019 0.000000 0.000000 0.000000 -89.554797 1.007134 1.538472 -5.135464 -18.095591 -14.321735 3.756526 -5.226617 -6.083910 42.468764 -29.917789 31.083586 -8.263870 -0.000007 -0.000019 0.000000 0.000000 0.000000 -89.554797 1.007134 1.538472 0.876143 -0.854827 1.076894 -1.068398 -1.863814 -0.054220 0.000000 0.000000 0.000000 0.000000 0.000000 0.000000 -1.015956 -2.024543 0.151549 -9.006249 -0.155155 -1.157053 11.174293 -3.338740 1.945954 0.000000 0.000000 0.000000 -1.015956 -2.024543 0.151549 0.858777 -5.206891 -3.948533 0.000000 0.000000 0.000000 37.610959 -27.241240 -53.302567 -0.000028 -81.497742 -0.000056 0.000000 0.000000 0.000000 -1.015956 -2.024543 0.151549 0.565618 0.926268 13.758620 0.000000 0.000000 0.000000 17.972810 25.016661 55.305602 179.994377 87.680491 -179.994404 0.000000 0.000000 0.000000 
0.816813 134.346558 -0.048286 0.000000 0.000000 0.000000 -89.069587 0.924745 1.567268 -6.108045 15.752873 17.705172 6.493609 6.472982 0.886713 29.808506 29.350791 -29.809227 -8.774263 -0.000000 0.000006 0.000000 0.000000 0.000000 -89.069587 0.924745 1.567268 -5.812513 -17.905817 -14.403742 4.094049 -5.008242 -6.203782 42.694806 -29.960082 31.150393 -8.040357 -0.000005 -0.000004 0.000000 0.000000 0.000000 -89.069587 0.924745 1.567268 0.815196 -0.764358 1.108409 -1.173452 -1.675404 -0.132610 0.000000 0.000000 0.000000 0.000000 0.000000 0.000000 -1.093875 -1.928325 0.101877 -8.437270 -0.185557 -1.107797 12.412103 -3.586830 1.989226 0.000000 0.000000 0.000000 -1.093875 -1.928325 0.101877 0.951134 -6.215611 -4.035607 0.000000 0.000000 0.000000 38.063169 -26.966779 -52.883672 0.000545 -81.775096 0.000490 0.000000 0.000000 0.000000 -1.093875 -1.928325 0.101877 0.704205 0.173205 13.890134 0.000000 0.000000 0.000000 10.477588 22.513446 61.548665 0.040610 89.205494 -0.040579 0.000000 0.000000 0.000000 
1.004852 134.448380 0.002449 0.000000 0.000000 0.000000 -88.500243 0.753405 1.493686 -6.969294 15.510595 17.760910 7.138880 6.622383 1.013678 29.954741 29.307631 -29.767091 -9.485038 -0.000008 0.000022 0.000000 0.000000 0.000000 -88.500243 0.753405 1.493686 -6.562429 -17.553272 -14.294617 4.213816 -5.026971 -6.364792 42.555620 -29.998526 31.269654 -7.802509 0.000001 -0.000013 0.000000 0.000000 0.000000 -88.500243 0.753405 1.493686 0.815991 -0.680148 1.140605 -1.086501 -1.505917 -0.213860 0.000000 0.000000 0.000000 0.000000 0.000000 0.000000 -1.033219 -1.833643 0.049775 -7.739074 -0.175002 -1.195905 13.826330 -3.733051 2.016967 0.000000 0.000000 0.000000 -1.033219 -1.833643 0.049775 1.023993 -6.554936 -4.401524 0.000000 0.000000 0.000000 38.287991 -26.622682 -52.178858 0.000364 -82.155578 0.000324 0.000000 0.000000 0.000000 -1.033219 -1.833643 0.049775 0.763651 -0.439416 14.277133 0.000000 0.000000 0.000000 4.843268 21.899818 64.116120 0.003853 86.832755 -0.003814 0.000000 0.000000 0.000000 
1.116079 134.546768 -0.069572 0.000000 0.000000 0.000000 -88.005314 0.579199 1.473565 -7.321881 15.349701 17.648910 7.221600 6.768293 1.134449 30.104786 29.299336 -29.799945 -10.178592 -0.000005 -0.000003 0.000000 0.000000 0.000000 -88.005314 0.579199 1.473565 -7.071636 -17.198773 -14.137796 4.183490 -5.150048 -6.596951 42.265610 -30.006865 31.304236 -7.543668 0.000003 0.000012 0.000000 0.000000 0.000000 -88.005314 0.579199 1.473565 0.974207 -0.610538 1.105564 -0.550243 -1.373422 -0.298007 0.000000 0.000000 0.000000 0.000000 0.000000 0.000000 -0.636831 -1.742191 -0.007548 -6.909541 -0.122664 -1.294285 15.378670 -3.692340 2.003248 0.000000 0.000000 0.000000 -0.636831 -1.742191 -0.007548 1.047251 -6.308588 -5.059536 0.000000 0.000000 0.000000 38.152279 -26.197197 -51.045385 0.000095 -82.694617 0.000105 0.000000 0.000000 0.000000 -0.636831 -1.742191 -0.007548 0.838305 -0.632776 14.999480 0.000000 0.000000 0.000000 0.240093 21.834032 64.950338 0.000815 85.558774 -0.000843 0.000000 0.000000 0.000000 
1.127166 134.639328 -0.214859 0.000000 0.000000 0.000000 -87.673394 0.488535 1.507945 -7.360297 15.235295 17.479707 6.907615 6.938610 1.251667 30.450971 29.311607 -29.890390 -10.760692 0.000021 -0.000013 0.000000 0.000000 0.000000 -87.673394 0.488535 1.507945 -7.193256 -16.931836 -13.864176 4.017415 -5.163544 -6.937137 41.245416 -30.018903 31.260130 -7.234058 -0.000008 0.000000 0.000000 0.000000 0.000000 -87.673394 0.488535 1.507945 1.317271 -0.566012 1.031853 0.197208 -1.296445 -0.389917 0.000000 0.000000 0.000000 0.000000 0.000000 0.000000 0.127712 -1.655917 -0.073351 -5.947273 -0.021616 -1.414924 17.028795 -3.449249 1.828501 0.000000 0.000000 0.000000 0.127712 -1.655917 -0.073351 0.975107 -5.248807 -5.907839 0.000000 0.000000 0.000000 37.979670 -26.272744 -49.034106 0.000759 -83.270019 0.000733 0.000000 0.000000 0.000000 0.127712 -1.655917 -0.073351 0.916508 -0.327799 16.072540 0.000000 0.000000 0.000000 -2.191956 22.716871 63.120688 0.002207 86.297569 -0.002210 0.000000 0.000000 0.000000 
1.067926 134.735901 -0.386620 0.000000 0.000000 0.000000 -87.338729 0.366499 1.554401 -7.405645 15.094505 17.331364 6.575006 7.128275 1.373916 30.759781 29.323337 -29.997641 -11.133069 -0.000006 -0.000002 0.000000 0.000000 0.000000 -87.338729 0.366499 1.554401 -7.314263 -16.626152 -13.501210 3.823996 -5.268005 -7.396969 40.534427 -30.025122 31.231600 -6.927615 -0.000000 -0.000031 0.000000 0.000000 0.000000 -87.338729 0.366499 1.554401 1.861060 -0.583778 0.964663 1.113881 -1.351414 -0.483782 0.000000 0.000000 0.000000 0.000000 0.000000 0.000000 1.124879 -1.578954 -0.154839 -4.852431 0.058315 -1.520997 18.739708 -3.215244 1.291451 0.000000 0.000000 0.000000 1.124879 -1.578954 -0.154839 0.895530 -3.461304 -7.156455 0.000000 0.000000 0.000000 38.047842 -26.635672 -45.917511 -0.000078 -84.031913 -0.000109 0.000000 0.000000 0.000000 1.124879 -1.578954 -0.154839 0.937552 -0.027922 17.765180 0.000000 0.000000 0.000000 2.676926 27.944998 51.664712 -179.975389 88.922253 179.975389 0.000000 0.000000 0.000000 
1.010435 134.824387 -0.600281 0.000000 0.000000 0.000000 -87.075534 0.212515 1.556237 -7.445344 14.941654 17.230617 6.253898 7.324452 1.498565 31.145803 29.335089 -30.026741 -11.434444 -0.000007 -0.000013 0.000000 0.000000 0.000000 -87.075534 0.212515 1.556237 -7.287820 -16.298322 -13.025874 3.621599 -5.417708 -7.920361 39.771396 -30.030569 31.208132 -6.646551 0.000004 -0.000041 0.000000 0.000000 0.000000 -87.075534 0.212515 1.556237 2.567717 -0.633579 0.903079 2.158772 -1.471702 -0.579875 0.000000 0.000000 0.000000 0.000000 0.000000 0.000000 2.218938 -1.520858 -0.268980 -3.624019 0.118062 -1.601575 20.949421 -3.002092 0.581154 0.000000 0.000000 0.000000 2.218938 -1.520858 -0.268980 0.846702 -1.354276 -8.415333 0.000000 0.000000 0.000000 38.127864 -27.265193 -42.459335 -0.000420 -84.774416 -0.000420 0.000000 0.000000 0.000000 2.218938 -1.520858 -0.268980 0.971203 0.036219 19.665575 0.000000 0.000000 0.000000 8.673802 29.146593 41.891606 -179.999855 81.991339 179.999855 0.000000 0.000000 0.000000 
